<svg width="36" height="36" viewBox="0 0 36 36" xmlns="http://www.w3.org/2000/svg">
    <g fill="none" fill-rule="evenodd">
        <rect fill="#FFF" width="36" height="36" rx="12"/>
        <g transform="translate(5 5)">
            <path fill="#6FBA2A" d="M20.695 22.185 15.998 17.5l1.482-1.478 4.697 4.685z"/>
            <path d="m22.061 25.326-4.179-4.17c-.9-.898-.9-2.356 0-3.255a2.312 2.312 0 0 1 3.264 0l4.179 4.17c.9.898.9 2.355 0 3.255-.902.899-2.362.899-3.264 0" fill="#6FBA2A"/>
            <ellipse stroke="#6FBA2A" stroke-width="2.25" cx="9.789" cy="9.765" rx="9.789" ry="9.765"/>
            <path d="M14.956 13.239c.145-.215.277-.44.395-.672M15.899 8.546a6.228 6.228 0 0 0-6.11-4.995c-.947 0-1.844.21-2.648.588" stroke="#6FBA2A" stroke-width="2.25" stroke-linecap="round" stroke-linejoin="round"/>
        </g>
    </g>
</svg>
