<svg width="12" height="12" viewBox="0 0 12 12" xmlns="http://www.w3.org/2000/svg">
    <g fill="none" fill-rule="evenodd">
        <path d="M8.269 2.108c-1.248-2.144-3.29-2.144-4.538 0L.533 7.602C-.715 9.746.306 11.5 2.8 11.5H9.2c2.495 0 3.516-1.754 2.268-3.898L8.27 2.108z" fill="#FF4C36"/>
        <path d="M6.665 7.606a.324.324 0 0 0 .208-.065c.054-.042.08-.092.08-.15V3.714a.184.184 0 0 0-.08-.154.34.34 0 0 0-.208-.06h-1.33a.34.34 0 0 0-.208.06.184.184 0 0 0-.08.154v3.677c0 .058.026.108.08.15a.324.324 0 0 0 .208.065h1.33zM6.71 10a.33.33 0 0 0 .202-.064c.058-.043.087-.093.087-.15V8.73a.192.192 0 0 0-.087-.158.33.33 0 0 0-.202-.064H5.289a.324.324 0 0 0-.208.064A.195.195 0 0 0 5 8.73v1.055c0 .057.027.107.08.15A.324.324 0 0 0 5.29 10h1.422z" fill="#FFF" fill-rule="nonzero"/>
    </g>
</svg>
