<?xml version="1.0" encoding="UTF-8"?>
<svg width="32px" height="32px" viewBox="0 0 32 32" version="1.1" xmlns="http://www.w3.org/2000/svg" xmlns:xlink="http://www.w3.org/1999/xlink">
    <title>CB87A4B2-C883-4A48-A899-7FF2851D89D5</title>
    <g id="01_個人化首頁" stroke="none" stroke-width="1" fill="none" fill-rule="evenodd" stroke-linecap="round" stroke-linejoin="round">
        <g id="Button_Style" transform="translate(-5526.000000, -2800.000000)" stroke="#4F8EC9" stroke-width="1.5">
            <g id="icon/medicine" transform="translate(5517.000000, 2791.000000)">
                <g id="icon_note" transform="translate(9.000000, 9.000000)">
                    <g id="Group" transform="translate(9.000000, 7.000000)">
                        <path d="M9,0 L9,4.22222222 C9,4.80518946 9.44771525,5.27777778 10,5.27777778 L14,5.27777778" id="Path"></path>
                        <path d="M12,19 L2,19 C0.8954305,19 0,18.0548234 0,16.8888889 L0,2.11111111 C0,0.945176639 0.8954305,0 2,0 L9,0 L14,5.27777778 L14,16.8888889 C14,18.0548234 13.1045695,19 12,19 Z" id="Path"></path>
                        <g id="Group-2" transform="translate(5.000000, 6.000000)">
                            <line x1="2" y1="0.5" x2="2" y2="4.5" id="Line"></line>
                            <line x1="4" y1="2.5" x2="0" y2="2.5" id="Line"></line>
                        </g>
                        <line x1="3" y1="13" x2="11" y2="13" id="Line-2"></line>
                        <line x1="3" y1="16" x2="11" y2="16" id="Line-2"></line>
                    </g>
                </g>
            </g>
        </g>
    </g>
</svg>