<?xml version="1.0" encoding="UTF-8"?>
<svg width="32px" height="32px" viewBox="0 0 32 32" version="1.1" xmlns="http://www.w3.org/2000/svg" xmlns:xlink="http://www.w3.org/1999/xlink">
    <title>FF4C3BB0-581F-47EA-87E0-24AA6E8410FF</title>
    <g id="01_個人化首頁" stroke="none" stroke-width="1" fill="none" fill-rule="evenodd" stroke-linecap="round" stroke-linejoin="round">
        <g id="Button_Style" transform="translate(-5436.000000, -2800.000000)" stroke="#4F8EC9" stroke-width="1.5">
            <g id="icon/search_point" transform="translate(5427.000000, 2791.000000)">
                <g id="icon_note" transform="translate(9.000000, 9.000000)">
                    <g id="Group" transform="translate(9.000000, 6.000000)">
                        <path d="M9,0 L9,4.22222222 C9,4.80518946 9.44771525,5.27777778 10,5.27777778 L14,5.27777778" id="Path"></path>
                        <path d="M14,15.4921799 C14,15.80696 14,16.2274024 14,16.8888889 C14,18.0548234 13.1045695,19 12,19 L2,19 C0.8954305,19 0,18.0548234 0,16.8888889 L0,2.11111111 C0,0.945176639 0.8954305,0 2,0 L9,0 L14,5.27777778 C14,6.9030189 14,8.18737944 14,9" id="Path"></path>
                        <line x1="3.5" y1="9.5" x2="11.1275635" y2="9.5" id="Line-6"></line>
                        <line x1="3.5" y1="13.5" x2="7.5" y2="13.5" id="Line-6"></line>
                        <line x1="14.8395996" y1="14.810791" x2="17.5" y2="17.5" id="Line-11"></line>
                        <circle id="Oval" cx="13" cy="12" r="3"></circle>
                    </g>
                </g>
            </g>
        </g>
    </g>
</svg>