<svg width="32" height="32" viewBox="0 0 32 32" xmlns="http://www.w3.org/2000/svg">
    <g stroke="#6FBA2A" stroke-width="1.5" fill="none" fill-rule="evenodd" stroke-linecap="round" stroke-linejoin="round">
        <path d="m21.16 22.99 5.87-12.032a2.206 2.206 0 0 0-1.024-2.982 2.206 2.206 0 0 0-2.98 1.03l-5.868 12.032 1.023 2.982 2.98-1.03zM22.048 11.011l4.004 1.953M4 24c3.333-2.222 5-4.444 5-6.667C9 14 8 14 7 14s-2.032 1.206-2 3.333c.034 2.276.696 3.04 1.538 4.288C8.038 23.843 10 24.556 11 22.89c.667-1.111 1.167-2.037 1.5-2.778 1 2.592 2.333 3.889 4 3.889h1.413"/>
    </g>
</svg>
