<svg width="125" height="24" xmlns="http://www.w3.org/2000/svg" xmlns:xlink="http://www.w3.org/1999/xlink">
    <defs>
        <linearGradient x1="76.007%" y1="34.891%" x2="18.343%" y2="70.825%" id="c">
            <stop stop-color="#FFF" stop-opacity=".2" offset="0%"/>
            <stop stop-color="#FFF" offset="100%"/>
        </linearGradient>
        <linearGradient x1="76.007%" y1="37.307%" x2="18.343%" y2="67.495%" id="d">
            <stop stop-color="#FFF" stop-opacity=".4" offset="0%"/>
            <stop stop-color="#FFF" offset="100%"/>
        </linearGradient>
        <linearGradient x1="76.007%" y1="33.12%" x2="18.343%" y2="73.265%" id="e">
            <stop stop-color="#FFF" stop-opacity=".6" offset="0%"/>
            <stop stop-color="#FFF" offset="100%"/>
        </linearGradient>
        <path id="a" d="M0 0h17.117v16.074H0z"/>
    </defs>
    <g fill="none" fill-rule="evenodd">
        <path d="M53.638 15.39v-.807c0-.14-.127-.105-.127-.105-2.148.621-4.714.837-5.885.865h-.006a.178.178 0 0 0-.179.176v1.292c0 .096.08.175.177.175l.002.002h.01l.004-.002c1.317-.052 4.154-.656 5.895-1.437 0 0 .109-.042.109-.16zm5.834 3.287H46.637l.003-10.595h7.554c.232 1.72.693 3.948 1.595 6.021-.778 1.133-1.705 2.155-2.781 2.895-.093.06-.026.161-.026.161l.345.665s.053.13.16.05c1.126-.642 2.09-1.524 2.915-2.518.555 1.005 1.239 1.933 2.075 2.7.085.1.17.02.17.02l.52-.616s.07-.056-.011-.128c-.797-.95-1.413-2.017-1.894-3.115a21.044 21.044 0 0 0 1.528-2.662c.075-.146-.055-.19-.055-.19l-1.094-.446s-.123-.051-.169.078a18.238 18.238 0 0 1-.8 1.668c-.531-1.646-.802-3.268-.932-4.583h2.763s.394 0 .376-.489c-.157-.871-.315-1.74-.407-2.23h1.005l-.005 13.314zM46.64 5.363h7.319c.008.294.035.842.103 1.563H46.64V5.363zm8.982 0h1.31c.07.349.164.89.263 1.563h-1.544a19.997 19.997 0 0 1-.029-1.563zm5.047-1.148h-15.22a.94.94 0 0 0-.94.94V18.88c0 .519.42.945.935.945h15.22c.516 0 .936-.42.936-.94V5.158a.938.938 0 0 0-.931-.942zm-11.16 5.862h2.064v2.595l-2.065-.001.002-2.594zm-1.132 3.581 4.327.001a.938.938 0 0 0 .934-.94V10.03a.939.939 0 0 0-.933-.942h-4.327a.938.938 0 0 0-.935.94l-.002 2.69c0 .52.419.94.936.94zM124.72 13.338h-16.622a.176.176 0 0 0-.174.175v.764c0 .096.08.175.174.175h12.384v.623h-4.135a.175.175 0 0 0-.173.176v.764c0 .097.077.175.173.175h1.238l.24 1.645c0 .089.078.16.18.16h1.278c.059 0 .104-.04.104-.091l-.46-1.714h1.554v1.747c-.01.474-.09.73-.864.73h-.439c-.053 0-.062.036-.064.054v.835c0 .146.12.266.267.266l.808.002c1.836 0 2.418-.253 2.42-1.857V16.19h1.14a.175.175 0 0 0 .176-.175v-.764a.177.177 0 0 0-.175-.176h-1.141v-.623h2.111a.174.174 0 0 0 .173-.175v-.764a.174.174 0 0 0-.173-.175zm-15.143-1.705a.175.175 0 0 0-.173.175v.766c0 .097.078.176.173.176h13.673c.096 0 .175-.08.175-.176v-.766a.176.176 0 0 0-.175-.175h-5.731v-.585h4.915a.174.174 0 0 0 .173-.176v-.765a.174.174 0 0 0-.173-.175h-12.043a.175.175 0 0 0-.173.175v.765c0 .097.079.176.173.176h4.916l-.002.585h-5.728zm-.505-5.691h6.236l-.001.587h-4.916a.174.174 0 0 0-.173.174v.765c0 .097.079.176.173.176h12.043a.174.174 0 0 0 .173-.176v-.765a.173.173 0 0 0-.173-.174h-4.915l.001-.587h6.236c.096 0 .173-.08.173-.176V5a.173.173 0 0 0-.173-.174h-6.236v-.542a.22.22 0 0 0-.214-.224h-1.784c-.119 0-.214.1-.214.224v.542h-6.236A.173.173 0 0 0 108.9 5v.765c0 .096.077.176.173.176zm2.398 12.054h2.024v-1.934h-2.024v1.934zm3.155-2.921h-4.286a.938.938 0 0 0-.935.939v2.028c0 .52.417.94.935.94h4.283a.937.937 0 0 0 .935-.938l.002-2.029a.94.94 0 0 0-.934-.94zm9.418-6.844h-14.95a.219.219 0 0 0-.223.213v.684c0 .12.1.22.223.22h14.305l-.372 1.476c0 .123.094.224.213.224h1.025c.153 0 .155-.095.207-.224 0 0 .39-1.197.497-1.616.098-.378.019-.977-.925-.977zM104.064 18.971l-.572.732s-.117.186-.298.096a.045.045 0 0 1-.012-.006l-.001.002c-4.577-1.877-6.71-5.819-7.703-9.263-.991 3.444-3.126 7.386-7.703 9.263v-.002a.045.045 0 0 1-.012.006c-.18.09-.298-.096-.298-.096l-.572-.732s-.098-.147.035-.231c.321-.165.73-.388 1.058-.594 6.13-3.941 6.301-12.462 6.293-13.687 0-.082.067-.148.147-.148h2.105c.08 0 .145.066.147.148-.008 1.225.164 9.746 6.293 13.687.328.206.736.429 1.058.594.136.084.035.231.035.231" fill="#FEFEFE"/>
        <g transform="translate(65.847 3.75)">
            <mask id="b" fill="#fff">
                <use xlink:href="#a"/>
            </mask>
            <path d="M15.726 14.197c-1.56-.736-3.376-1.378-5.001-1.749-.154-.05-.18.066-.18.066l-.315.687s-.073.147.068.198c1.562.683 2.935 1.233 4.4 2.114.152.066.33.06.435-.081.272-.401.387-.587.659-.992.055-.087.026-.192-.066-.243M6.77 13.051c-.052-.377-.063-.329-.138-.71a.121.121 0 0 0-.172-.094c-1.73.904-3.448 1.353-5.322 1.874-.11.041-.144.12-.1.22.154.328.411.903.523 1.146a.23.23 0 0 0 .29.1c1.525-.52 3.443-1.495 4.84-2.305.09-.068.095-.13.079-.231m10.172-2.892c-1.063-.506-2.272-1.269-3.168-2.154h3.17a.174.174 0 0 0 .172-.175v-.94a.173.173 0 0 0-.173-.175H6.113c.383-.494.736-.995 1.056-1.488h7.728a.173.173 0 0 0 .175-.176v-.937a.174.174 0 0 0-.175-.177h-6.95c.301-.533.56-1.037.774-1.486h7.603c.096 0 .173-.08.173-.176v-.94a.173.173 0 0 0-.173-.175H9.29c.076-.189.134-.349.174-.469.06-.174.05-.304-.142-.351C8.906.25 8.065.078 7.819.013c-.328-.083-.386.25-.386.25l-.137.443c-.043.138-.096.29-.156.454H.867a.175.175 0 0 0-.175.175v.94c0 .096.078.176.175.176h5.748c-.206.467-.447.968-.724 1.486H2.263a.174.174 0 0 0-.173.177v.937c0 .098.076.176.173.176h2.886a19.26 19.26 0 0 1-1.023 1.488H.188a.174.174 0 0 0-.174.174v.94c0 .098.078.176.174.176H3.03c-.842.882-1.793 1.644-2.854 2.15-.277.093-.144.34-.144.34l.204.501s.071.206.317.114c.67-.242 1.3-.563 1.895-.94 1.385.348 3.04 1.098 3.452 1.27.13.068.185-.036.185-.036l.501-1.06s.085-.135-.055-.198c-.577-.252-1.876-.626-2.885-.851a14.9 14.9 0 0 0 1.37-1.29H11.8c.408.428.872.835 1.367 1.216-.806.381-2.114.671-2.841.756-.093.01-.131.074-.105.18.14.424.183.753.322 1.17.046.141.112.138.204.115.484-.072 2.577-.858 3.49-1.478.749.468 1.54.864 2.327 1.152.243.092.316-.114.316-.114l.206-.504s.132-.247-.144-.34M8.64 8.875h-.98a.214.214 0 0 0-.214.213v5.101c-.01.472-.092.73-.86.73h-.443c-.07 0-.064.063-.064.063v.825c0 .15.12.268.266.268h.808c1.837.001 2.42-.25 2.42-1.855l.002-4.405a.94.94 0 0 0-.935-.94" fill="#FEFEFE" mask="url(#b)"/>
        </g>
        <g fill-rule="nonzero">
            <path d="M27.666 4.847a3.03 3.03 0 0 1-1.419-1.245c-.925-1.62-2.767-2.525-4.65-2.287a3.439 3.439 0 0 1-2.172-.501 4.667 4.667 0 0 0-5.267 0 3.44 3.44 0 0 1-2.173.47c-1.888-.236-3.731.684-4.642 2.318a3.13 3.13 0 0 1-1.731 1.362C3.906 5.53 2.698 7.02 2.525 8.77a3.246 3.246 0 0 1-1.002 1.942A4.8 4.8 0 0 0 0 14.228v.062a33.1 33.1 0 0 1 10.302-6.906c6.213-2.725 12.522-3.516 17.364-2.537z" fill="url(#c)"/>
            <path d="M15.785 10.947a31.91 31.91 0 0 1 15.168-2.85 4.546 4.546 0 0 0-2.974-3.133l-.313-.117c-4.81-.98-11.151-.188-17.364 2.537A33.099 33.099 0 0 0 0 14.29c.029 2.433 1.877 4.478 4.345 4.808a32.106 32.106 0 0 1 11.44-8.151z" fill="url(#d)"/>
            <path d="M32.067 10.712a3.246 3.246 0 0 1-1.002-1.942 5.908 5.908 0 0 0-.112-.674 31.91 31.91 0 0 0-15.168 2.85 32.106 32.106 0 0 0-11.44 8.152c.229.032.459.047.69.047h7.215c.336 0 .657.132.893.366.235.234.364.551.357.88v.281a1.294 1.294 0 0 1-1.138 1.284l-5.876.963a.42.42 0 0 0-.385.376V24H27.49v-.705a.428.428 0 0 0-.393-.376l-5.876-.963a1.295 1.295 0 0 1-1.139-1.276v-.29a1.207 1.207 0 0 1 .36-.866c.234-.23.551-.361.883-.363h7.215c2.78 0 5.035-2.202 5.035-4.918a4.8 4.8 0 0 0-1.508-3.531z" fill="url(#e)"/>
        </g>
    </g>
</svg>
